<svg id="Layer_1" data-name="Layer 1" xmlns="http://www.w3.org/2000/svg" viewBox="0 0 612 200.11"><defs><style>.cls-1,.cls-2{fill:#fff;}.cls-2{fill-rule:evenodd;}</style></defs><path class="cls-1" d="M101.46,296q42.14.15,86.87,20l1.41.6.5,1.41v.1h0c2.42,7.35,4.53,14.7,6.24,22s3.12,14.7,4.13,22.05A232.41,232.41,0,0,1,203,391.07v11.27a254.74,254.74,0,0,1-12.79,73.08l-.5,1.41-1.41.6c-28.18,12.48-56.47,18.62-84.65,18.62h-2.22v-6.84h2.22c26.77,0,53.65-5.74,80.52-17.41q17.52-54.36,9.67-108.72c-1-7-2.42-14.29-4.13-21.44-1.51-6.64-3.42-13.38-5.54-20q-42.72-18.72-82.74-18.82ZM18.82,316.08C45.2,302.59,72.57,296,100.86,296h.6v6.84h-.6c-26.88,0-52.75,6.24-77.81,18.82C12.88,345.77,7.15,370.33,6.84,395.4c-.4,24.86,4.74,50.33,16.11,76.29q39.25,17.07,78.51,17.52v6.84c-27.48-.3-55-6.44-82.44-18.62l-1.81-1.71C5.54,449.55.1,423.78,0,398.52V395.3C.3,369,6.44,343.15,17.21,317.79Z" transform="translate(0 -295.95)"/><path class="cls-2" d="M103.27,451.87c-1.4-19.23-.5-39.26-6.24-57.58-5.33-17.11-25.56-26.88-26-45.7-.4-14.7,10.77-31.71,31.71-31.71,19.63-.1,31.81,14.2,33.22,30.1,1.71,18.42-20.64,30.8-26.47,48.32C103.48,413.21,105.19,433,103.27,451.87Z" transform="translate(0 -295.95)"/><path class="cls-2" d="M111,447.23c-.81-16.7-.81-32.71,3.82-46.9,5.13-16.11,15.8-29.7,32.11-34.12,11.17-3,27.58,10.06,25,23.45-2.21,10.77-13,23.45-30.29,24.86-8.06.71-11.48,7.15-16.51,10.87,22.55-2.21,37.14-11.07,47.31-20.33,1.51,7.85,2.51,21-3.63,25.57-12.08,8.55-23.25,1.61-37.44,5.63C123.41,438.58,118.47,443.61,111,447.23Z" transform="translate(0 -295.95)"/><path class="cls-2" d="M95.62,447.23c.91-16.7.81-32.71-3.72-46.9-5.13-16.11-15.8-29.7-32.11-34.12-11.17-3-27.68,10.06-25,23.45,2.21,10.77,13,23.45,30.3,24.86,8,.71,11.47,7.15,16.5,10.87C59,423.18,44.49,414.32,34.32,405.06c-1.51,7.85-2.51,21,3.63,25.57,12.08,8.55,23.25,1.61,37.44,5.63C83.34,438.58,88.18,443.61,95.62,447.23Z" transform="translate(0 -295.95)"/><path class="cls-2" d="M149.28,472.1v-2.72l2-.5-2-3v-5l9.05,12.59-3.22.8-2.21-3.12Zm0-11.28v5l-1.41-2-.61,6,2-.5v2.72l-2.32.5-.4,3.73-3.22.8,2.11-16.41,3.22-.8.61.9Zm-30,20v-2.61h.7a12.43,12.43,0,0,0,2.12-.3,1.9,1.9,0,0,0,1-.71,2,2,0,0,0,.41-1.31,2.19,2.19,0,0,0-.51-1.21,1.7,1.7,0,0,0-1-.6,11.44,11.44,0,0,0-2.72,0v-2.62c.8,0,1.31-.1,1.51-.1a2.43,2.43,0,0,0,1.21-.7,1.27,1.27,0,0,0,.3-1.21,1.31,1.31,0,0,0-.5-1.11,1.4,1.4,0,0,0-1.21-.5,8.57,8.57,0,0,0-1.31.1v-2.62a9.46,9.46,0,0,1,2.42,0,3.35,3.35,0,0,1,1.71.51,3.44,3.44,0,0,1,1.31,1.1,4.88,4.88,0,0,1,.6,1.82,3.49,3.49,0,0,1-.4,2,3.71,3.71,0,0,1-1.51,1.51,3.9,3.9,0,0,1,2.31,1.21,3.45,3.45,0,0,1,1,2.21,7.63,7.63,0,0,1-.3,2.11,5.5,5.5,0,0,1-1.21,1.72,6.26,6.26,0,0,1-2,.9c-.51.1-1.82.2-3.73.4Zm19-8.45,3.12.4a6.05,6.05,0,0,1-5.43,6,7,7,0,0,1-5.34-1.21,8.31,8.31,0,0,1-3-5.33,8.4,8.4,0,0,1,1-6.24,6.81,6.81,0,0,1,4.73-3,6.56,6.56,0,0,1,4.83.9,5.27,5.27,0,0,1,2,2.52l-2.92,1.21a3.17,3.17,0,0,0-1.41-1.61,3.36,3.36,0,0,0-2.22-.4,3.7,3.7,0,0,0-2.51,1.71,5.89,5.89,0,0,0-.41,4.12,7.16,7.16,0,0,0,1.82,3.93,3.36,3.36,0,0,0,2.92.8,3.53,3.53,0,0,0,1.91-1.2A4.79,4.79,0,0,0,138.3,472.4Zm-19-7V468c-.4,0-.81.1-1.31.1l-1.81.2.3,3.53,2.11-.21a1.73,1.73,0,0,0,.71-.1v2.62h-.1l-2.42.2.31,4.13,2.21-.2v2.61l-5,.51L112.84,466l6.14-.51a.37.37,0,0,1,.3-.1ZM99.85,475.52V472.9a4.17,4.17,0,0,0,1.41-.2,2.31,2.31,0,0,0,1-.7,2.73,2.73,0,0,0,.3-1.21,1.7,1.7,0,0,0-.4-1.41,1.88,1.88,0,0,0-1.21-.7c-.3,0-.6-.11-1.11-.11V466a9,9,0,0,1,2.92.3,3.69,3.69,0,0,1,2.22,1.51,4.3,4.3,0,0,1,.8,3,6.09,6.09,0,0,1-.5,2.41,6.28,6.28,0,0,1-1.31,1.51,11.26,11.26,0,0,1-1.71.71A16.57,16.57,0,0,1,99.85,475.52Zm0-9.56v2.61H98.64l-1.51-.1v4.43h2.72v2.62H97l-.1,5.84-3.12-.1.31-15.4,4.93.1ZM70.76,474v-4.73a7.85,7.85,0,0,0,1.81.2,1.9,1.9,0,0,0,1-.5,2.86,2.86,0,0,0,.5-1.11,1.94,1.94,0,0,0-.2-1.31,1.88,1.88,0,0,0-1.1-.8,15.62,15.62,0,0,0-2-.41v-2.61l1.31.2a11.73,11.73,0,0,1,3.42,1A3.37,3.37,0,0,1,77,465.76a4.67,4.67,0,0,1-1.31,5.13,4.93,4.93,0,0,1-3.22.91,6.11,6.11,0,0,1,1.41,1.51,14.6,14.6,0,0,1,1.31,2.81l1.31,3.33-3.62-.71L71.27,475c-.21-.31-.31-.71-.51-1Zm8.86-9.56,3,.3-.7,8.35c-.11,1.31-.11,2.22-.11,2.52a2.78,2.78,0,0,0,.81,1.61,3.09,3.09,0,0,0,2,.81,2.86,2.86,0,0,0,2-.41,2.34,2.34,0,0,0,1-1.2c.1-.51.2-1.41.3-2.62l.71-8.56,3.12.3-.7,8.06a13.43,13.43,0,0,1-.61,3.92,4.33,4.33,0,0,1-1,1.81,4.24,4.24,0,0,1-2,1.11,6.56,6.56,0,0,1-2.92.2,8,8,0,0,1-3.32-.8,6.14,6.14,0,0,1-1.71-1.41,4.59,4.59,0,0,1-.7-1.81,22.9,22.9,0,0,1,0-3.93ZM55.16,469l.6-2.52,6.55,1.71-1.61,5.94a6.88,6.88,0,0,1-3.22.91,11.28,11.28,0,0,1-3.73-.31,8.05,8.05,0,0,1-3.82-2A7.21,7.21,0,0,1,48,469.18a9.93,9.93,0,0,1,.21-4.23A9.17,9.17,0,0,1,50.33,461a6.34,6.34,0,0,1,3.52-1.92,7.27,7.27,0,0,1,3.83.2,7.14,7.14,0,0,1,4,2.32,5.28,5.28,0,0,1,1.11,3.72l-3.12-.2A3.17,3.17,0,0,0,59,463a4,4,0,0,0-2-1.21,4.42,4.42,0,0,0-3.42.4,5.81,5.81,0,0,0-2.21,3.43,6.12,6.12,0,0,0,.1,4.32,4.1,4.1,0,0,0,2.71,2.12,6.94,6.94,0,0,0,2,.2,10.66,10.66,0,0,0,1.91-.5l.5-1.92-3.42-.9Zm15.6-6.24-5.23-.91L62.91,477l3,.5L67,471.19l.7.1a7.49,7.49,0,0,1,1.51.4,6.87,6.87,0,0,1,.81.81c.1.3.4.81.7,1.51v-4.73c-.3,0-.6-.1-1-.1l-2.22-.4.61-3.83,2.41.4h.2Z" transform="translate(0 -295.95)"/><path class="cls-2" d="M550.5,443.91V415.53H563V365.6l-12.48,25v-62.3h49L612,471.8H563V443.91Zm0-115.65v62.3l-12.48,25H550.5v28.38H526.94l-9.66,26.38h-30.4V437.47l33.92-73.18h-6.94l19.32-36Zm-63.62,47.81,15.2-36-15.2-8.45ZM366,362.28a33.94,33.94,0,0,0,0-12v12Zm120.89-30.7v44.49l-2,4.83c-30-21.44-74.29-1.91-76.8,20.74-2.52,23.65,15.5,42.78,61.5,28.48l-15.8,42.28c-60.7,6.74-84.25-17.31-87.78-45.4V411.1A87,87,0,0,1,371.43,390c29.89-74.28,78.41-57.58,96.83-59l2.72-8.26,15.9,8.86Zm0,105.89-15.2,32.82h15.2ZM311.44,469.38c32.51-6.44,64.42-45.5,32.41-76.6A42.83,42.83,0,0,0,366,362.28v-12c-2.21-12.38-11.77-22.45-29.79-22.75l-24.76-.5v27.58H321.7c11,0,9.57,28.39-4.12,28.39h-6.14v21.74c14.79,2.82,9.56,23.35,0,29.69v34.93ZM366,411.1V427A70.45,70.45,0,0,1,366,411.1Zm-97.43-85-20,38.86,9-.71-24.16,106h69.16a45.4,45.4,0,0,0,9-.91V434.45a9.71,9.71,0,0,1-5.54,1.91H281l8.25-31.9h18.62a18.6,18.6,0,0,1,3.53.3V383H294.12l6.95-28.39h10.37V327.05Z" transform="translate(0 -295.95)"/></svg>