<svg id="Layer_1" data-name="Layer 1" xmlns="http://www.w3.org/2000/svg" viewBox="0 0 24 24"><defs><style>.cls-1{fill:none;}.cls-2{fill:#fff;}</style></defs><title>hok</title><path class="cls-1" d="M0,0H24V24H0Z"/><path class="cls-2" d="M21.16,4.26A41.22,41.22,0,0,0,22,11,10,10,0,0,1,5.67,19.74l2.85-2.85a6,6,0,0,0,8.37-8.37Zm-2.83,0L15.48,7.11a6,6,0,0,0-8.37,8.37L2.84,19.74A41.22,41.22,0,0,0,2.05,13,10,10,0,0,1,18.33,4.26ZM12,8a4,4,0,1,1-4,4A4,4,0,0,1,12,8Zm0,2.5A1.5,1.5,0,1,0,13.5,12,1.5,1.5,0,0,0,12,10.5Z"/></svg>